<?xml version="1.0" encoding="UTF-8"?>
<svg id="Capa_1" data-name="Capa 1" xmlns="http://www.w3.org/2000/svg" viewBox="0 0 500 500">
  <defs>
    <style>
      .cls-1 {
        fill: #001569;
      }

      .cls-2 {
        fill: #fff;
      }
    </style>
  </defs>
  <circle class="cls-1" cx="250" cy="250" r="250"/>
  <g>
    <g>
      <path class="cls-1" d="M346.271,233.633c26.787,31.76,52.182-23.188,60.456,54.457-53.302-30.504-58.887,33.758-130.029,39.027"/>
      <path class="cls-2" d="M346.271,233.633c5.705,5.261,12.835,8.958,20.588,8.476,5.795-.156,11.771-2.198,17.926-2.324,21.831-.687,25.498,31.463,27.804,47.681,0,0,1.385,11.249,1.385,11.249-15.303-8.314-29.998-18.008-47.448-9.436-13.08,6.488-24.027,16.975-36.933,24.253-15.757,9.483-34.695,14.687-52.895,13.585,11.846-2.406,23.165-6.074,33.408-11.607,36.223-18.823,53.148-59.836,99.55-32.536,0,0-8.79,5.741-8.79,5.741-.748-7.777-1.641-15.536-3.243-22.891-1.236-5.217-2.574-10.309-5.681-14.388-3.052-4.057-8.1-4.157-12.936-3.993-3.887,.11-8.144,.4-12.438-.196-8.548-.904-15.996-6.507-20.296-13.614h0Z"/>
    </g>
    <g>
      <path class="cls-1" d="M357.582,233.633s-7.07-5.441-3.556-39.718c1.206-11.762,5.689-34.892,5.7-46.716,.041-43.946-30.708-59.46-30.708-59.46"/>
      <path class="cls-2" d="M357.582,233.633c-2.164-1.468-3.36-4.005-4.438-6.314-1.689-3.976-2.638-8.234-3.338-12.459-3.136-19.893,.951-39.938,3.007-59.516,2.094-18.277-1.049-37.287-11.214-52.914-3.433-5.286-7.539-10.304-12.581-14.691,6.502,2.083,12.287,6.09,17.268,10.763,12.862,12.102,19.341,30.082,19.7,47.566,.236,13.38-2.75,27.012-5.107,40.032-1.874,10.353-7.823,39.106-3.298,47.533h0Z"/>
    </g>
    <g>
      <path class="cls-1" d="M305.7,162.723l6.171-3.535c11.179-6.404,19.696-16.44,24.064-28.354l7.253-19.784"/>
      <path class="cls-2" d="M305.7,162.723c4.108-3.666,8.672-6.699,12.54-10.549,7.806-7.357,13.265-16.479,17.232-26.341,2.295-5.029,4.747-10,7.716-14.782-1.366,8.352-3.363,16.417-6.297,24.297-5.539,13.725-17.13,23.304-31.191,27.375h0Z"/>
    </g>
    <g>
      <path class="cls-1" d="M323.153,247.056l-3.187-20.366c-3.816-24.386-13.877-47.37-29.205-66.716l-62.981-79.491"/>
      <path class="cls-2" d="M323.153,247.056c-5.268-15.237-8.536-31.28-15.34-45.855-5.935-13.377-13.592-25.978-22.734-37.396-20.926-26.432-40.998-53.709-57.299-83.322,6.236,5.461,12.076,11.235,17.83,17.078,17.815,18.29,34.434,37.7,50.18,57.757,4.58,5.868,8.793,12.104,12.297,18.668,12.983,23.777,15.839,46.468,15.065,73.071h0Z"/>
    </g>
    <g>
      <path class="cls-1" d="M237.827,112.593s4.227,18.461,4.834,24.732c1.378,14.23,3.457,28.381,10.075,41.053h0c4.641,8.886,10.755,16.92,18.081,23.761l3.606,3.367"/>
      <path class="cls-2" d="M237.827,112.593c2.788,5.957,5.012,12.039,6.918,18.307,2.818,10.085,4.301,21.095,7.151,30.826,3.783,13.904,10.795,26.434,18.904,38.293,1.219,1.755,2.478,3.595,3.623,5.486-1.972-1.039-3.871-2.086-5.737-3.297-22.165-14.621-30.338-38.514-29.654-64.063-.148-8.335-1.236-17.141-1.205-25.552h0Z"/>
    </g>
    <g>
      <path class="cls-1" d="M250.073,237.762h0c-7.85-9.942-13.107-21.679-15.298-34.155l-6.996-39.838,9.139,11.695c6.776,8.671,15.344,15.777,25.118,20.833l10.893,7.589"/>
      <path class="cls-2" d="M250.073,237.762c-10.488-8.598-17.401-21.404-20.424-34.595-3.053-12.697-5.601-25.492-7.603-38.391,0,0-3.619-23.361-3.619-23.361,6.689,9.073,17.999,24.062,24.339,33.096,5.682,7.627,12.528,14.231,20.255,19.882,3.474,2.955,6.699,6.228,9.908,9.493-4.118-1.799-8.138-3.771-12.118-5.83,0,0,.24,.145,.24,.145-1.954-.674-3.87-1.466-5.769-2.324-8.601-3.999-16.287-9.912-22.493-17.088-2.855-3.27-6.843-8.06-9.597-11.435,0,0,10.32-4.591,10.32-4.591,1.257,6.4,2.374,12.825,3.355,19.274,1.637,9.482,2.238,19.14,3.873,28.625,1.805,9.479,5.019,18.191,9.332,27.101h0Z"/>
    </g>
    <g>
      <path class="cls-1" d="M274.897,267.367h0c-5.147-10.533-14.458-18.438-25.686-21.808l-28.431-8.532,7.651,17.765c4.634,10.759,10.988,20.693,18.815,29.41l6.733,7.499"/>
      <path class="cls-2" d="M274.897,267.367c-6.388-8.282-14.85-14.525-24.708-17.234-10.135-2.41-20.867-5.164-30.886-8.184,0,0,6.198-6.955,6.198-6.955,2.478,5.789,5.357,12.8,7.584,18.637,3.303,8.497,7.396,16.584,12.228,24.379,2.742,4.484,5.957,8.92,8.666,13.691-4.422-3.299-8.658-6.648-12.613-10.528-6.91-6.838-12.672-14.97-16.934-23.739-4.303-8.8-8.897-19.641-12.888-28.648,10.835,3.387,23.037,6.985,33.647,10.85,2.566,.924,4.939,1.74,7.765,2.934,10.478,4.577,19.098,13.831,21.941,24.797h0Z"/>
    </g>
    <g>
      <path class="cls-1" d="M255.713,296.817h-1.746c-7.768,0-15.488-1.219-22.877-3.613h0c-10.729-3.476-22.235-3.714-33.085-.699-.73,.203-1.442,.467-2.137,.768l-5.443,2.361"/>
      <path class="cls-2" d="M255.713,296.817c-5.531,1.876-11.442,2.303-17.263,1.787-5.51-.406-10.773-2.351-16.21-3.17-7.702-1.307-15.643-1.527-23.538-.934-2.745,.249-5.497,.938-8.277,1.135,1.091-.98,2.21-1.897,3.353-2.757,9.013-6.579,21.352-7.732,32.087-5.453,4.819,1.014,9.233,3.115,13.928,4.6,5.082,1.729,10.325,3.085,15.92,4.792h0Z"/>
    </g>
    <g>
      <path class="cls-1" d="M212.443,306.952l-.87,.093c-28.653,3.068-57.1-7.379-76.957-28.262l-13.685-14.393-.407,8.693c-.038,.812-.087,1.624-.146,2.434-1.118,15.249-6.388,29.902-14.757,42.698l-8.422,12.876"/>
      <path class="cls-2" d="M212.443,306.952c-21.985,5.81-46.46,.976-65.498-11.421-11.555-7.241-20.392-17.853-29.627-27.706,0,0,8.592-3.202,8.592-3.202-.416,6.144-.672,12.376-1.906,18.441-2.345,12.283-7.667,24.07-15.133,34.027-3.772,4.861-7.614,9.41-11.673,13.999,2.097-4.753,5.667-11.521,8.017-16.249,5.114-10.473,8.639-21.656,9.939-33.158,.699-5.823,.573-11.663,.796-17.527,0,0,.402-11.468,.402-11.468l8.191,8.266c6.166,6.093,11.929,12.654,18.2,18.637,18.744,17.675,43.992,26.735,69.7,27.36h0Z"/>
    </g>
    <g>
      <path class="cls-1" d="M251.814,313.484l-19.652,1.371c-4.326,.302-8.619,.965-12.834,1.983l-20.085,4.851c-9.127,2.205-18.578,2.736-27.895,1.569l-10.889-1.364"/>
      <path class="cls-2" d="M251.814,313.484c-10.99,3.549-22.439,4.281-33.439,7.755-22.668,6.261-35.049,9.312-57.916,.655,3.931-.453,7.851-.577,11.711-.662,7.463-.176,14.812-1.004,22.035-2.634,9.295-2.256,18.661-4.871,28.151-6.265,9.849-1.164,19.673-.217,29.459,1.15h0Z"/>
    </g>
    <g>
      <path class="cls-1" d="M176.029,334.658l-5.632-.258c-.82-.037-1.639-.092-2.454-.192-9.512-1.161-26.74,.235-33.227,2.171-6.337,1.892-9.724,5.068-13.682,9.161-4.894,5.063-10.53,9.359-16.703,12.746l-11.058,6.066"/>
      <path class="cls-2" d="M176.029,334.658c-7.519,1.596-15.207,1.602-22.766,2.925-6.961,1.21-14.23,1.623-20.647,4.55-3.9,1.824-6.834,5.015-10.101,7.943-2.276,2.016-4.728,3.851-7.293,5.472-6.802,4.31-14.233,6.723-21.947,8.807,5.508-5.303,12.066-9.448,17.548-14.604,4.389-3.835,7.618-8.345,12.071-12.232,8.158-7.087,19.77-7.402,30.003-7.179,4.922,.214,9.92,.709,14.729,2.026,2.697,.782,5.713,1.429,8.403,2.293h0Z"/>
    </g>
    <g>
      <path class="cls-1" d="M229.736,326.476l-16.688,10.931c-7.425,4.863-16.107,7.454-24.983,7.454h-3.021c-13.3,0-25.937,5.807-34.599,15.9l-2.943,3.429"/>
      <path class="cls-2" d="M229.736,326.476c-5.314,6.099-11.036,11.586-17.489,16.391-5.292,3.635-11.536,6.037-17.927,6.967-3.031,.455-6.322,.502-9.369,.44-4.317-.017-8.596,.482-12.808,1.48-5.233,1.32-10.125,3.259-14.912,6.02-3.354,1.87-6.463,4.325-9.729,6.415,3.147-7.744,8.621-14.327,15.876-18.639,6.399-3.931,14.024-5.998,21.548-6.098,7.909,.165,15.699-.872,23.185-4.043,7.127-3.225,14.028-6.733,21.625-8.934h0Z"/>
    </g>
    <g>
      <path class="cls-1" d="M237.632,334.034l-31.433,33.471c-11.668,12.425-26.36,21.61-42.639,26.66l-13.691,4.247"/>
      <path class="cls-2" d="M237.632,334.034c-9.657,14.778-20.619,28.309-32.875,40.928-15.666,14.988-33.635,21.437-54.888,23.449,4.144-2.264,8.382-4.228,12.64-6.125,12.335-5.389,23.873-12.519,33.941-21.316,3.386-2.911,6.379-5.992,9.706-9.342,9.947-9.839,20.084-19.28,31.476-27.594h0Z"/>
    </g>
    <g>
      <path class="cls-1" d="M239.774,345.262l-2.695,9.878c-.172,.63-.334,1.262-.486,1.896-3.254,13.564-1.454,27.852,4.519,40.458l10.435,22.024"/>
      <path class="cls-2" d="M239.774,345.262c.282,6.513-.895,12.991-.753,19.384-.059,12.393,3.038,24.23,7.519,35.649,2.12,6.194,4.011,12.496,5.007,19.223-4.575-5.031-8.255-10.486-11.705-16.049-1.747-2.819-3.482-5.834-4.827-8.88-7.31-16.88-5.31-34.103,4.76-49.326h0Z"/>
    </g>
    <g>
      <path class="cls-1" d="M291.659,316.634l-20.244,2.632c-8.504,1.106-15.65,6.926-18.454,15.03h0c-2.509,7.25-1.171,15.278,3.554,21.322l25.156,32.18"/>
      <path class="cls-2" d="M291.659,316.634c-4.378,1.506-8.796,2.703-13.223,3.832-4.058,1.111-8.471,1.578-12.128,3.732-10.301,5.58-13.558,19.513-6.575,28.938,8.036,11.112,15.648,22.346,21.938,34.662-7.005-6.038-13.301-12.63-19.414-19.365-4.59-5.485-10.262-10.47-13.009-17.194-5.246-12.765,1.328-28.338,14.26-33.145,4.606-1.9,9.527-1.672,14.387-1.783,4.568-.041,9.146-.013,13.763,.323h0Z"/>
    </g>
  </g>
</svg>